<svg width="48" height="48" viewBox="0 0 48 48" fill="none" xmlns="http://www.w3.org/2000/svg">
<path d="M23.9998 11.9746L13.9078 35.4786L11.8748 29.1636L7.50977 37.8556" stroke="white" stroke-linecap="round" stroke-linejoin="round"/>
<path d="M13.4188 19.3103C15.3949 19.3103 16.9968 17.7084 16.9968 15.7323C16.9968 13.7562 15.3949 12.1543 13.4188 12.1543C11.4427 12.1543 9.84082 13.7562 9.84082 15.7323C9.84082 17.7084 11.4427 19.3103 13.4188 19.3103Z" stroke="white" stroke-linecap="round" stroke-linejoin="round"/>
<path d="M9.9401 12.2536L9.0251 11.3376M17.8141 20.1276L16.8981 19.2116M13.4201 10.8136V9.51758M13.4201 21.9476V20.6516M18.3391 15.7326H19.6351M7.2041 15.7326H8.5001M16.8981 12.2536L17.8141 11.3376M9.0251 20.1276L9.9411 19.2116M35.1081 11.5036L35.0391 11.5086C35.6332 12.0915 36.0419 12.8369 36.2139 13.6512C36.3859 14.4656 36.3135 15.3126 36.0059 16.086C35.6982 16.8593 35.169 17.5246 34.4847 17.9983C33.8003 18.472 32.9913 18.733 32.1591 18.7486C32.6546 19.233 33.2617 19.5882 33.9268 19.7827C34.5919 19.9772 35.2947 20.0052 35.9732 19.864C36.6516 19.7229 37.285 19.4171 37.8174 18.9735C38.3498 18.5299 38.7649 17.9621 39.0261 17.3202C39.2873 16.6784 39.3867 15.9821 39.3153 15.2928C39.244 14.6035 39.0042 13.9423 38.6171 13.3675C38.23 12.7927 37.7075 12.322 37.0956 11.9967C36.4836 11.6715 35.8011 11.5028 35.1081 11.5036Z" stroke="white" stroke-linecap="round" stroke-linejoin="round"/>
<path d="M31.1172 12.7754C31.3011 12.7754 31.4502 12.6263 31.4502 12.4424C31.4502 12.2585 31.3011 12.1094 31.1172 12.1094C30.9333 12.1094 30.7842 12.2585 30.7842 12.4424C30.7842 12.6263 30.9333 12.7754 31.1172 12.7754Z" stroke="white" stroke-linecap="round" stroke-linejoin="round"/>
<path d="M32.0049 16.6523C32.1888 16.6523 32.3379 16.5032 32.3379 16.3193C32.3379 16.1354 32.1888 15.9863 32.0049 15.9863C31.821 15.9863 31.6719 16.1354 31.6719 16.3193C31.6719 16.5032 31.821 16.6523 32.0049 16.6523Z" stroke="white" stroke-linecap="round" stroke-linejoin="round"/>
<path d="M40.427 37.7306L36.125 29.1636L34.092 35.4786L24 11.9746V45.4066" stroke="white" stroke-linecap="round" stroke-linejoin="round"/>
<path d="M24 45.5C35.8741 45.5 45.5 35.8741 45.5 24C45.5 12.1259 35.8741 2.5 24 2.5C12.1259 2.5 2.5 12.1259 2.5 24C2.5 35.8741 12.1259 45.5 24 45.5Z" stroke="white" stroke-linecap="round" stroke-linejoin="round"/>
</svg>
