<svg width="32" height="32" viewBox="0 0 32 32" fill="none" xmlns="http://www.w3.org/2000/svg">
<path d="M22.9998 24C19.3998 24 17.9698 19.824 16.5868 15.786C15.2768 11.958 13.9198 8 10.9998 8C10.3179 8.04017 9.66335 8.28246 9.11964 8.69599C8.57592 9.10952 8.16763 9.67557 7.9468 10.322L6.0498 9.684C6.1008 9.534 7.3208 6 10.9998 6C15.3498 6 17.0118 10.855 18.4798 15.138C19.6888 18.667 20.8298 22 22.9998 22C23.6816 21.9599 24.336 21.7178 24.8798 21.3044C25.4235 20.8911 25.8318 20.3252 26.0528 19.679L27.9488 20.316C27.8988 20.466 26.6788 24 22.9998 24Z" fill="white"/>
<path d="M4 28V17H6V15H4V2H2V28C2 28.5304 2.21071 29.0391 2.58579 29.4142C2.96086 29.7893 3.46957 30 4 30H30V28H4Z" fill="white"/>
<path d="M8 15H10V17H8V15ZM12 15H14V17H12V15ZM20 15H22V17H20V15ZM24 15H26V17H24V15ZM28 15H30V17H28V15Z" fill="white"/>
</svg>
