<svg width="32" height="32" viewBox="0 0 32 32" fill="none" xmlns="http://www.w3.org/2000/svg">
<path d="M23 9.19961L20.4 6.59961L19 7.99961L23 11.9996L30 4.99961L28.6 3.59961L23 9.19961ZM12 5.39961L10.6 3.99961L8 6.59961L5.4 3.99961L4 5.39961L6.6 7.99961L4 10.5996L5.4 11.9996L8 9.39961L10.6 11.9996L12 10.5996L9.4 7.99961L12 5.39961ZM12 21.3996L10.6 19.9996L8 22.5996L5.4 19.9996L4 21.3996L6.6 23.9996L4 26.5996L5.4 27.9996L8 25.3996L10.6 27.9996L12 26.5996L9.4 23.9996L12 21.3996Z" fill="white"/>
<path d="M17 15V2H15V15H2V17H15V30H17V17H30V15H17Z" fill="white"/>
</svg>
