<svg width="20" height="20" viewBox="0 0 20 20" fill="none" xmlns="http://www.w3.org/2000/svg">
<path d="M5.5 3C4.83696 3 4.20107 3.26339 3.73223 3.73223C3.26339 4.20107 3 4.83696 3 5.5V14.5C3 15.163 3.26339 15.7989 3.73223 16.2678C4.20107 16.7366 4.83696 17 5.5 17H9.6C9.43668 16.6803 9.30505 16.3454 9.207 16H5.5C5.10218 16 4.72064 15.842 4.43934 15.5607C4.15804 15.2794 4 14.8978 4 14.5V5.5C4 5.10218 4.15804 4.72064 4.43934 4.43934C4.72064 4.15804 5.10218 4 5.5 4H14.5C14.8978 4 15.2794 4.15804 15.5607 4.43934C15.842 4.72064 16 5.10218 16 5.5V9.207C16.3493 9.30633 16.6827 9.43733 17 9.6V5.5C17 4.83696 16.7366 4.20107 16.2678 3.73223C15.7989 3.26339 15.163 3 14.5 3H5.5ZM9.207 13C9.30633 12.6507 9.43733 12.3173 9.6 12H5.5C5.36739 12 5.24021 12.0527 5.14645 12.1464C5.05268 12.2402 5 12.3674 5 12.5C5 12.6326 5.05268 12.7598 5.14645 12.8536C5.24021 12.9473 5.36739 13 5.5 13H9.207ZM8.5 15C8.63261 15 8.75979 14.9473 8.85355 14.8536C8.94732 14.7598 9 14.6326 9 14.5C9 14.3674 8.94732 14.2402 8.85355 14.1464C8.75979 14.0527 8.63261 14 8.5 14H5.5C5.36739 14 5.24021 14.0527 5.14645 14.1464C5.05268 14.2402 5 14.3674 5 14.5C5 14.6326 5.05268 14.7598 5.14645 14.8536C5.24021 14.9473 5.36739 15 5.5 15H8.5ZM8 5C8.09674 4.99999 8.19141 5.02804 8.27253 5.08076C8.35364 5.13347 8.41772 5.20859 8.457 5.297L10.457 9.797C10.4837 9.85701 10.4982 9.92169 10.4999 9.98734C10.5016 10.053 10.4903 10.1183 10.4667 10.1796C10.4431 10.2409 10.4077 10.2969 10.3624 10.3445C10.3172 10.3921 10.263 10.4303 10.203 10.457C10.143 10.4837 10.0783 10.4982 10.0127 10.4999C9.94701 10.5016 9.88168 10.4903 9.82039 10.4667C9.75911 10.4431 9.70307 10.4077 9.65547 10.3624C9.60788 10.3172 9.56966 10.263 9.543 10.203L9.008 9H6.992L6.457 10.203C6.40316 10.3242 6.30338 10.4191 6.17961 10.4667C6.05583 10.5143 5.9182 10.5108 5.797 10.457C5.6758 10.4032 5.58094 10.3034 5.53331 10.1796C5.48568 10.0558 5.48916 9.9182 5.543 9.797L7.543 5.297C7.58228 5.20859 7.64636 5.13347 7.72747 5.08076C7.80859 5.02804 7.90326 4.99999 8 5ZM8.564 8L8 6.731L7.436 8H8.564ZM13.5 5.5C13.5 5.36739 13.4473 5.24021 13.3536 5.14645C13.2598 5.05268 13.1326 5 13 5C12.8674 5 12.7402 5.05268 12.6464 5.14645C12.5527 5.24021 12.5 5.36739 12.5 5.5V6.5H11.5C11.3674 6.5 11.2402 6.55268 11.1464 6.64645C11.0527 6.74021 11 6.86739 11 7C11 7.13261 11.0527 7.25979 11.1464 7.35355C11.2402 7.44732 11.3674 7.5 11.5 7.5H12.5V8.5C12.5 8.63261 12.5527 8.75979 12.6464 8.85355C12.7402 8.94732 12.8674 9 13 9C13.1326 9 13.2598 8.94732 13.3536 8.85355C13.4473 8.75979 13.5 8.63261 13.5 8.5V7.5H14.5C14.6326 7.5 14.7598 7.44732 14.8536 7.35355C14.9473 7.25979 15 7.13261 15 7C15 6.86739 14.9473 6.74021 14.8536 6.64645C14.7598 6.55268 14.6326 6.5 14.5 6.5H13.5V5.5ZM19 14.5C19 15.6935 18.5259 16.8381 17.682 17.682C16.8381 18.5259 15.6935 19 14.5 19C13.3065 19 12.1619 18.5259 11.318 17.682C10.4741 16.8381 10 15.6935 10 14.5C10 13.3065 10.4741 12.1619 11.318 11.318C12.1619 10.4741 13.3065 10 14.5 10C15.6935 10 16.8381 10.4741 17.682 11.318C18.5259 12.1619 19 13.3065 19 14.5ZM15 12.5C15 12.3674 14.9473 12.2402 14.8536 12.1464C14.7598 12.0527 14.6326 12 14.5 12C14.3674 12 14.2402 12.0527 14.1464 12.1464C14.0527 12.2402 14 12.3674 14 12.5V14H12.5C12.3674 14 12.2402 14.0527 12.1464 14.1464C12.0527 14.2402 12 14.3674 12 14.5C12 14.6326 12.0527 14.7598 12.1464 14.8536C12.2402 14.9473 12.3674 15 12.5 15H14V16.5C14 16.6326 14.0527 16.7598 14.1464 16.8536C14.2402 16.9473 14.3674 17 14.5 17C14.6326 17 14.7598 16.9473 14.8536 16.8536C14.9473 16.7598 15 16.6326 15 16.5V15H16.5C16.6326 15 16.7598 14.9473 16.8536 14.8536C16.9473 14.7598 17 14.6326 17 14.5C17 14.3674 16.9473 14.2402 16.8536 14.1464C16.7598 14.0527 16.6326 14 16.5 14H15V12.5Z" fill="white"/>
</svg>
