<svg width="47" height="12" viewBox="0 0 47 12" fill="none" xmlns="http://www.w3.org/2000/svg">
<path d="M0.503906 10.3633C0.488281 10.3242 0.480469 10.1836 0.480469 9.94141C0.480469 9.69922 0.480469 9.39453 0.480469 9.02734C0.488281 8.66016 0.496094 8.25 0.503906 7.79688C0.519531 7.33594 0.53125 6.87109 0.539062 6.40234C0.554688 5.92578 0.570312 5.46484 0.585938 5.01953C0.601562 4.56641 0.613281 4.16406 0.621094 3.8125C0.636719 3.46094 0.648438 3.17578 0.65625 2.95703C0.664062 2.73047 0.671875 2.60938 0.679688 2.59375C0.6875 2.5625 0.722656 2.48438 0.785156 2.35938C0.847656 2.23438 0.917969 2.10547 0.996094 1.97266C1.08203 1.83203 1.16797 1.71094 1.25391 1.60938C1.33984 1.5 1.41406 1.44922 1.47656 1.45703C1.5 1.46484 1.51953 1.62109 1.53516 1.92578C1.55859 2.22266 1.57812 2.60547 1.59375 3.07422C1.61719 3.54297 1.63281 4.0625 1.64062 4.63281C1.65625 5.19531 1.66797 5.74609 1.67578 6.28516C1.69141 6.81641 1.70312 7.30078 1.71094 7.73828C1.71875 8.16797 1.72656 8.48438 1.73438 8.6875C1.98438 8.71094 2.23438 8.73047 2.48438 8.74609C2.74219 8.76172 2.97266 8.78125 3.17578 8.80469C3.37891 8.82031 3.54297 8.83594 3.66797 8.85156C3.80078 8.86719 3.87109 8.87891 3.87891 8.88672C3.90234 8.91797 3.93359 8.99219 3.97266 9.10938C4.01953 9.21875 4.0625 9.33984 4.10156 9.47266C4.14062 9.59766 4.16797 9.71484 4.18359 9.82422C4.20703 9.93359 4.20312 10 4.17188 10.0234C3.27344 10.1875 2.57812 10.2969 2.08594 10.3516C1.59375 10.4062 1.23047 10.4336 0.996094 10.4336C0.722656 10.4336 0.558594 10.4102 0.503906 10.3633ZM5.0625 6.61328C5.1875 6.56641 5.32812 6.51562 5.48438 6.46094C5.64844 6.39844 5.80469 6.34375 5.95312 6.29688C6.10156 6.24219 6.23438 6.19531 6.35156 6.15625C6.46875 6.11719 6.55469 6.08594 6.60938 6.0625C6.60156 5.97656 6.58984 5.87891 6.57422 5.76953C6.56641 5.65234 6.55469 5.54297 6.53906 5.44141C6.52344 5.33203 6.50391 5.23828 6.48047 5.16016C6.45703 5.08203 6.43359 5.03516 6.41016 5.01953C6.34766 4.99609 6.24219 4.97656 6.09375 4.96094C5.95312 4.9375 5.80469 4.94141 5.64844 4.97266C5.5 5.00391 5.36328 5.0625 5.23828 5.14844C5.11328 5.23438 5.04297 5.37109 5.02734 5.55859C5.01172 5.68359 5.00781 5.83984 5.01562 6.02734C5.02344 6.21484 5.03906 6.41016 5.0625 6.61328ZM7.60547 6.80078C7.59766 6.81641 7.50391 6.84766 7.32422 6.89453C7.14453 6.94141 6.92969 6.99219 6.67969 7.04688C6.42969 7.09375 6.16406 7.14453 5.88281 7.19922C5.60156 7.24609 5.35938 7.28516 5.15625 7.31641C5.19531 7.62891 5.24219 7.91016 5.29688 8.16016C5.35156 8.40234 5.39844 8.55469 5.4375 8.61719C5.47656 8.67188 5.52734 8.72266 5.58984 8.76953C5.64453 8.80859 5.71094 8.84766 5.78906 8.88672C5.875 8.91797 5.97656 8.94141 6.09375 8.95703C6.17969 8.98047 6.26172 8.94922 6.33984 8.86328C6.40234 8.78516 6.45703 8.64844 6.50391 8.45312C6.55859 8.25781 6.58594 7.94922 6.58594 7.52734C6.82812 7.48828 7.01562 7.46484 7.14844 7.45703C7.28906 7.44922 7.39062 7.44922 7.45312 7.45703C7.53125 7.46484 7.57812 7.47656 7.59375 7.49219C7.60156 7.51562 7.60156 7.57422 7.59375 7.66797C7.58594 7.76172 7.56641 7.87891 7.53516 8.01953C7.51172 8.15234 7.48047 8.30078 7.44141 8.46484C7.41016 8.62109 7.37109 8.77344 7.32422 8.92188C7.27734 9.0625 7.22656 9.19141 7.17188 9.30859C7.11719 9.41797 7.05859 9.49609 6.99609 9.54297C6.80859 9.68359 6.57422 9.75391 6.29297 9.75391C6.01172 9.74609 5.73438 9.70703 5.46094 9.63672C5.1875 9.55859 4.94141 9.46875 4.72266 9.36719C4.50391 9.25781 4.36719 9.16797 4.3125 9.09766C4.27344 9.05078 4.23828 8.93359 4.20703 8.74609C4.17578 8.55078 4.14844 8.31641 4.125 8.04297C4.10938 7.76953 4.09766 7.46875 4.08984 7.14062C4.08203 6.8125 4.08594 6.49219 4.10156 6.17969C4.125 5.86719 4.15625 5.57812 4.19531 5.3125C4.24219 5.04688 4.30469 4.83203 4.38281 4.66797C4.5 4.43359 4.69141 4.24219 4.95703 4.09375C5.22266 3.94531 5.50391 3.84375 5.80078 3.78906C6.09766 3.73438 6.37891 3.72656 6.64453 3.76562C6.91797 3.80469 7.12109 3.89062 7.25391 4.02344C7.33203 4.10156 7.40234 4.25781 7.46484 4.49219C7.52734 4.71875 7.56641 4.99609 7.58203 5.32422C7.58203 5.35547 7.58594 5.44531 7.59375 5.59375C7.60156 5.74219 7.60547 5.90234 7.60547 6.07422C7.61328 6.23828 7.61719 6.39453 7.61719 6.54297C7.61719 6.69141 7.61328 6.77734 7.60547 6.80078ZM11.4258 3.83594C11.4727 3.89062 11.5156 3.94922 11.5547 4.01172C11.5938 4.06641 11.6289 4.14453 11.6602 4.24609C11.6914 4.33984 11.7148 4.46484 11.7305 4.62109C11.7539 4.77734 11.7656 4.98047 11.7656 5.23047C11.7656 5.62891 11.7539 6.03125 11.7305 6.4375C11.7148 6.83594 11.6992 7.1875 11.6836 7.49219C11.6758 7.76562 11.668 8.01953 11.6602 8.25391C11.6523 8.48828 11.6445 8.69531 11.6367 8.875C11.6289 9.04688 11.6172 9.18359 11.6016 9.28516C11.5938 9.38672 11.5859 9.44141 11.5781 9.44922C11.5469 9.47266 11.4961 9.46484 11.4258 9.42578C11.3633 9.37891 11.293 9.32031 11.2148 9.25C11.1445 9.17969 11.0781 9.10547 11.0156 9.02734C10.9531 8.94922 10.9141 8.88672 10.8984 8.83984C10.8984 8.80078 10.8867 8.6875 10.8633 8.5C10.6758 8.60938 10.4688 8.6875 10.2422 8.73438C10.0156 8.77344 9.78906 8.78906 9.5625 8.78125C9.34375 8.76562 9.14062 8.72266 8.95312 8.65234C8.76562 8.58203 8.625 8.48828 8.53125 8.37109C8.49219 8.32422 8.45703 8.25391 8.42578 8.16016C8.40234 8.06641 8.37891 7.96094 8.35547 7.84375C8.33984 7.71875 8.32422 7.58984 8.30859 7.45703C8.29297 7.31641 8.28125 7.1875 8.27344 7.07031C8.25781 6.76562 8.29688 6.50391 8.39062 6.28516C8.48438 6.05859 8.65625 5.89062 8.90625 5.78125C9.01562 5.73438 9.16016 5.71094 9.33984 5.71094C9.52734 5.70312 9.71094 5.71094 9.89062 5.73438C10.0781 5.75 10.2461 5.77344 10.3945 5.80469C10.543 5.82812 10.6367 5.84766 10.6758 5.86328C10.6445 5.46484 10.6211 5.12109 10.6055 4.83203C10.5898 4.53516 10.5586 4.34375 10.5117 4.25781C10.4727 4.20312 10.4258 4.14844 10.3711 4.09375C10.3242 4.05469 10.2617 4.01172 10.1836 3.96484C10.1055 3.91797 10.0117 3.88281 9.90234 3.85938C9.81641 3.84375 9.73828 3.87891 9.66797 3.96484C9.60547 4.04297 9.54688 4.18359 9.49219 4.38672C9.44531 4.58203 9.41797 4.88281 9.41016 5.28906C9.13672 5.29688 8.92578 5.29688 8.77734 5.28906C8.63672 5.27344 8.53125 5.25781 8.46094 5.24219C8.375 5.22656 8.32422 5.20703 8.30859 5.18359C8.29297 5.15234 8.30078 5.03906 8.33203 4.84375C8.36328 4.64062 8.40625 4.42188 8.46094 4.1875C8.52344 3.95312 8.59375 3.73047 8.67188 3.51953C8.75781 3.30859 8.84766 3.17578 8.94141 3.12109C9.12891 3.01172 9.35156 2.97266 9.60938 3.00391C9.875 3.03516 10.1328 3.10156 10.3828 3.20312C10.6328 3.30469 10.8555 3.41797 11.0508 3.54297C11.2461 3.66797 11.3711 3.76562 11.4258 3.83594ZM10.6992 7.25781C10.6992 7.21875 10.7031 7.16797 10.7109 7.10547C10.7188 7.03516 10.7227 6.96484 10.7227 6.89453C10.7227 6.82422 10.7188 6.75781 10.7109 6.69531C10.7109 6.63281 10.7031 6.58594 10.6875 6.55469C10.6641 6.50781 10.5938 6.46875 10.4766 6.4375C10.3672 6.40625 10.2422 6.38672 10.1016 6.37891C9.96094 6.36328 9.82812 6.35938 9.70312 6.36719C9.57812 6.36719 9.49219 6.38281 9.44531 6.41406C9.38281 6.45312 9.33594 6.50781 9.30469 6.57812C9.28125 6.64844 9.26562 6.75781 9.25781 6.90625C9.25781 6.97656 9.26172 7.05078 9.26953 7.12891C9.27734 7.20703 9.28516 7.28516 9.29297 7.36328C9.30859 7.43359 9.32422 7.49609 9.33984 7.55078C9.36328 7.60547 9.38672 7.64062 9.41016 7.65625C9.46484 7.69531 9.55859 7.73047 9.69141 7.76172C9.83203 7.78516 9.97266 7.79297 10.1133 7.78516C10.2539 7.76953 10.3828 7.72266 10.5 7.64453C10.6172 7.56641 10.6836 7.4375 10.6992 7.25781ZM15.0586 3.61328C15.1211 3.65234 15.1797 3.73047 15.2344 3.84766C15.2969 3.95703 15.3516 4.08594 15.3984 4.23438C15.4531 4.375 15.4961 4.52734 15.5273 4.69141C15.5664 4.85547 15.5977 5.00781 15.6211 5.14844C15.6523 5.28906 15.6719 5.41016 15.6797 5.51172C15.6875 5.60547 15.6875 5.66406 15.6797 5.6875C15.6641 5.71875 15.6172 5.75 15.5391 5.78125C15.4688 5.8125 15.3633 5.84766 15.2227 5.88672C15.082 5.92578 14.8867 5.96875 14.6367 6.01562C14.6211 5.58594 14.5898 5.26172 14.543 5.04297C14.4961 4.81641 14.4453 4.65625 14.3906 4.5625C14.3281 4.45312 14.2617 4.39844 14.1914 4.39844C14.1211 4.42969 14.0586 4.46875 14.0039 4.51562C13.9492 4.55469 13.9023 4.59766 13.8633 4.64453C13.8164 4.69922 13.7734 4.75781 13.7344 4.82031C13.7188 4.84375 13.7031 4.89844 13.6875 4.98438C13.6719 5.07031 13.6562 5.19922 13.6406 5.37109C13.6406 5.42578 13.6367 5.53906 13.6289 5.71094C13.6289 5.88281 13.625 6.08203 13.6172 6.30859C13.6172 6.53516 13.6133 6.77344 13.6055 7.02344C13.6055 7.27344 13.6016 7.50781 13.5938 7.72656C13.5938 7.9375 13.5898 8.11719 13.582 8.26562C13.582 8.41406 13.5781 8.5 13.5703 8.52344C13.5547 8.5625 13.5156 8.61719 13.4531 8.6875C13.3906 8.75781 13.3203 8.82422 13.2422 8.88672C13.1641 8.94141 13.0898 8.98828 13.0195 9.02734C12.9492 9.05859 12.9023 9.05469 12.8789 9.01562C12.8555 8.99219 12.832 8.89062 12.8086 8.71094C12.7852 8.53125 12.7578 8.3125 12.7266 8.05469C12.7031 7.78906 12.6758 7.5 12.6445 7.1875C12.6133 6.875 12.5859 6.57422 12.5625 6.28516C12.5391 5.99609 12.5195 5.73828 12.5039 5.51172C12.4883 5.27734 12.4766 5.10938 12.4688 5.00781C12.4609 4.85938 12.4531 4.69531 12.4453 4.51562C12.4375 4.33594 12.4297 4.16797 12.4219 4.01172C12.4219 3.84766 12.4219 3.70703 12.4219 3.58984C12.4297 3.46484 12.4453 3.39062 12.4688 3.36719C12.4844 3.34375 12.5352 3.33984 12.6211 3.35547C12.7148 3.36328 12.8125 3.38672 12.9141 3.42578C13.0234 3.45703 13.125 3.5 13.2188 3.55469C13.3125 3.60938 13.375 3.66016 13.4062 3.70703C13.4297 3.74609 13.4531 3.80469 13.4766 3.88281C13.625 3.80469 13.7656 3.73438 13.8984 3.67188C14.0391 3.60156 14.1719 3.55078 14.2969 3.51953C14.4297 3.48828 14.5586 3.48047 14.6836 3.49609C14.8086 3.50391 14.9336 3.54297 15.0586 3.61328ZM19.418 5.08984C19.418 5.21484 19.4023 5.39453 19.3711 5.62891C19.3477 5.86328 19.3125 6.12109 19.2656 6.40234C19.2188 6.67578 19.168 6.96094 19.1133 7.25781C19.0664 7.54688 19.0156 7.8125 18.9609 8.05469C18.9141 8.29688 18.8711 8.5 18.832 8.66406C18.8008 8.82812 18.7812 8.91797 18.7734 8.93359C18.7578 8.95703 18.7148 8.97266 18.6445 8.98047C18.582 8.98047 18.5078 8.97266 18.4219 8.95703C18.3438 8.94141 18.2695 8.91797 18.1992 8.88672C18.1367 8.85547 18.0977 8.81641 18.082 8.76953C18.0742 8.73828 18.0703 8.62891 18.0703 8.44141C18.0781 8.25391 18.0859 8.03125 18.0938 7.77344C18.1094 7.50781 18.125 7.22656 18.1406 6.92969C18.1562 6.625 18.1719 6.34375 18.1875 6.08594C18.2109 5.82031 18.2266 5.59375 18.2344 5.40625C18.25 5.21875 18.2578 5.10547 18.2578 5.06641C18.2578 4.92578 18.2422 4.79297 18.2109 4.66797C18.1875 4.53516 18.1562 4.42188 18.1172 4.32812C18.0781 4.23438 18.0312 4.16406 17.9766 4.11719C17.9297 4.0625 17.8867 4.04297 17.8477 4.05859C17.7461 4.07422 17.6602 4.10156 17.5898 4.14062C17.5195 4.17188 17.4609 4.20703 17.4141 4.24609C17.3594 4.29297 17.3164 4.34766 17.2852 4.41016C17.2773 4.42578 17.2617 4.47266 17.2383 4.55078C17.2227 4.62891 17.2148 4.71875 17.2148 4.82031C17.2148 4.85156 17.2148 4.96484 17.2148 5.16016C17.2148 5.34766 17.2109 5.57422 17.2031 5.83984C17.2031 6.10547 17.1992 6.39453 17.1914 6.70703C17.1914 7.01172 17.1875 7.29688 17.1797 7.5625C17.1797 7.82031 17.1758 8.04297 17.168 8.23047C17.1602 8.41797 17.1523 8.52344 17.1445 8.54688C17.1289 8.59375 17.0898 8.66016 17.0273 8.74609C16.9648 8.82422 16.8945 8.89844 16.8164 8.96875C16.7383 9.03906 16.6641 9.09375 16.5938 9.13281C16.5234 9.16406 16.4766 9.15625 16.4531 9.10938C16.4297 9.08594 16.4062 8.97266 16.3828 8.76953C16.3594 8.55859 16.332 8.30469 16.3008 8.00781C16.2773 7.70312 16.25 7.375 16.2188 7.02344C16.1875 6.66406 16.1602 6.32031 16.1367 5.99219C16.1133 5.66406 16.0938 5.36719 16.0781 5.10156C16.0625 4.83594 16.0508 4.64453 16.043 4.52734C16.0352 4.36328 16.0273 4.17969 16.0195 3.97656C16.0117 3.76562 16.0039 3.57031 15.9961 3.39062C15.9961 3.20312 15.9961 3.04297 15.9961 2.91016C16.0039 2.76953 16.0195 2.68359 16.043 2.65234C16.0586 2.62109 16.1094 2.61328 16.1953 2.62891C16.2891 2.64453 16.3867 2.67578 16.4883 2.72266C16.5977 2.76172 16.6992 2.8125 16.793 2.875C16.8867 2.92969 16.9492 2.98438 16.9805 3.03906C16.9961 3.08594 17.0156 3.14062 17.0391 3.20312C17.0625 3.25781 17.082 3.35156 17.0977 3.48438C17.2305 3.40625 17.375 3.33594 17.5312 3.27344C17.6875 3.20312 17.8398 3.15234 17.9883 3.12109C18.1445 3.08203 18.293 3.07031 18.4336 3.08594C18.5742 3.09375 18.6992 3.13281 18.8086 3.20312C18.8789 3.25781 18.9492 3.35156 19.0195 3.48438C19.0977 3.61719 19.1641 3.77344 19.2188 3.95312C19.2812 4.13281 19.3281 4.32422 19.3594 4.52734C19.3984 4.72266 19.418 4.91016 19.418 5.08984ZM21.3164 4.96094C21.332 5 21.3398 5.125 21.3398 5.33594C21.3477 5.53906 21.3477 5.78906 21.3398 6.08594C21.3398 6.375 21.332 6.6875 21.3164 7.02344C21.3008 7.35156 21.2812 7.66406 21.2578 7.96094C21.2422 8.25 21.2227 8.5 21.1992 8.71094C21.1758 8.91406 21.1523 9.03516 21.1289 9.07422C21.0586 9.18359 20.9531 9.25391 20.8125 9.28516C20.6719 9.30859 20.5703 9.3125 20.5078 9.29688C20.4766 9.29688 20.4414 9.20703 20.4023 9.02734C20.3711 8.84766 20.3398 8.62109 20.3086 8.34766C20.2773 8.07422 20.25 7.77734 20.2266 7.45703C20.2031 7.13672 20.1836 6.83203 20.168 6.54297C20.1523 6.24609 20.1445 5.98828 20.1445 5.76953C20.1445 5.55078 20.1523 5.41016 20.168 5.34766C20.1914 5.24609 20.2578 5.15625 20.3672 5.07812C20.4844 5 20.6055 4.94141 20.7305 4.90234C20.8633 4.86328 20.9844 4.84766 21.0938 4.85547C21.2109 4.85547 21.2852 4.89062 21.3164 4.96094ZM21.375 3.0625C21.4062 3.125 21.418 3.21094 21.4102 3.32031C21.4102 3.42969 21.3984 3.54297 21.375 3.66016C21.3516 3.77734 21.3203 3.89062 21.2812 4C21.2422 4.10938 21.2031 4.19531 21.1641 4.25781C21.0859 4.36719 20.9688 4.4375 20.8125 4.46875C20.6641 4.49219 20.5547 4.49609 20.4844 4.48047C20.4297 4.47266 20.375 4.4375 20.3203 4.375C20.2656 4.30469 20.2188 4.22266 20.1797 4.12891C20.1406 4.02734 20.1133 3.91797 20.0977 3.80078C20.082 3.68359 20.0859 3.57422 20.1094 3.47266C20.1328 3.37109 20.207 3.28125 20.332 3.20312C20.457 3.11719 20.5898 3.05469 20.7305 3.01562C20.8711 2.96875 21.0039 2.94922 21.1289 2.95703C21.2539 2.95703 21.3359 2.99219 21.375 3.0625ZM25.5586 5.08984C25.5586 5.21484 25.543 5.39453 25.5117 5.62891C25.4883 5.86328 25.4531 6.12109 25.4062 6.40234C25.3594 6.67578 25.3086 6.96094 25.2539 7.25781C25.207 7.54688 25.1562 7.8125 25.1016 8.05469C25.0547 8.29688 25.0117 8.5 24.9727 8.66406C24.9414 8.82812 24.9219 8.91797 24.9141 8.93359C24.8984 8.95703 24.8555 8.97266 24.7852 8.98047C24.7227 8.98047 24.6484 8.97266 24.5625 8.95703C24.4844 8.94141 24.4102 8.91797 24.3398 8.88672C24.2773 8.85547 24.2383 8.81641 24.2227 8.76953C24.2148 8.73828 24.2109 8.62891 24.2109 8.44141C24.2188 8.25391 24.2266 8.03125 24.2344 7.77344C24.25 7.50781 24.2656 7.22656 24.2812 6.92969C24.2969 6.625 24.3125 6.34375 24.3281 6.08594C24.3516 5.82031 24.3672 5.59375 24.375 5.40625C24.3906 5.21875 24.3984 5.10547 24.3984 5.06641C24.3984 4.92578 24.3828 4.79297 24.3516 4.66797C24.3281 4.53516 24.2969 4.42188 24.2578 4.32812C24.2188 4.23438 24.1719 4.16406 24.1172 4.11719C24.0703 4.0625 24.0273 4.04297 23.9883 4.05859C23.8867 4.07422 23.8008 4.10156 23.7305 4.14062C23.6602 4.17188 23.6016 4.20703 23.5547 4.24609C23.5 4.29297 23.457 4.34766 23.4258 4.41016C23.418 4.42578 23.4023 4.47266 23.3789 4.55078C23.3633 4.62891 23.3555 4.71875 23.3555 4.82031C23.3555 4.85156 23.3555 4.96484 23.3555 5.16016C23.3555 5.34766 23.3516 5.57422 23.3438 5.83984C23.3438 6.10547 23.3398 6.39453 23.332 6.70703C23.332 7.01172 23.3281 7.29688 23.3203 7.5625C23.3203 7.82031 23.3164 8.04297 23.3086 8.23047C23.3008 8.41797 23.293 8.52344 23.2852 8.54688C23.2695 8.59375 23.2305 8.66016 23.168 8.74609C23.1055 8.82422 23.0352 8.89844 22.957 8.96875C22.8789 9.03906 22.8047 9.09375 22.7344 9.13281C22.6641 9.16406 22.6172 9.15625 22.5938 9.10938C22.5703 9.08594 22.5469 8.97266 22.5234 8.76953C22.5 8.55859 22.4727 8.30469 22.4414 8.00781C22.418 7.70312 22.3906 7.375 22.3594 7.02344C22.3281 6.66406 22.3008 6.32031 22.2773 5.99219C22.2539 5.66406 22.2344 5.36719 22.2188 5.10156C22.2031 4.83594 22.1914 4.64453 22.1836 4.52734C22.1758 4.36328 22.168 4.17969 22.1602 3.97656C22.1523 3.76562 22.1445 3.57031 22.1367 3.39062C22.1367 3.20312 22.1367 3.04297 22.1367 2.91016C22.1445 2.76953 22.1602 2.68359 22.1836 2.65234C22.1992 2.62109 22.25 2.61328 22.3359 2.62891C22.4297 2.64453 22.5273 2.67578 22.6289 2.72266C22.7383 2.76172 22.8398 2.8125 22.9336 2.875C23.0273 2.92969 23.0898 2.98438 23.1211 3.03906C23.1367 3.08594 23.1562 3.14062 23.1797 3.20312C23.2031 3.25781 23.2227 3.35156 23.2383 3.48438C23.3711 3.40625 23.5156 3.33594 23.6719 3.27344C23.8281 3.20312 23.9805 3.15234 24.1289 3.12109C24.2852 3.08203 24.4336 3.07031 24.5742 3.08594C24.7148 3.09375 24.8398 3.13281 24.9492 3.20312C25.0195 3.25781 25.0898 3.35156 25.1602 3.48438C25.2383 3.61719 25.3047 3.77344 25.3594 3.95312C25.4219 4.13281 25.4688 4.32422 25.5 4.52734C25.5391 4.72266 25.5586 4.91016 25.5586 5.08984ZM29.2148 10.375C29.1992 10.4219 29.1523 10.4961 29.0742 10.5977C28.9961 10.6992 28.9023 10.8047 28.793 10.9141C28.6836 11.0234 28.5742 11.1211 28.4648 11.207C28.3555 11.293 28.2656 11.3477 28.1953 11.3711C28.0391 11.418 27.8711 11.4062 27.6914 11.3359C27.5195 11.2734 27.3516 11.1875 27.1875 11.0781C27.0312 10.9688 26.8945 10.8555 26.7773 10.7383C26.6602 10.6289 26.5859 10.5469 26.5547 10.4922C26.5312 10.4375 26.5078 10.3633 26.4844 10.2695C26.4688 10.1758 26.457 10.082 26.4492 9.98828C26.4414 9.89453 26.4414 9.81641 26.4492 9.75391C26.4648 9.68359 26.4922 9.64844 26.5312 9.64844C26.5703 9.64844 26.6602 9.6875 26.8008 9.76562C26.9492 9.83594 27.1016 9.91016 27.2578 9.98828C27.4219 10.0664 27.5742 10.1289 27.7148 10.1758C27.8555 10.2227 27.9414 10.2148 27.9727 10.1523C28.0039 10.0977 28.0312 9.94531 28.0547 9.69531C28.0859 9.4375 28.1211 9.125 28.1602 8.75781C28.1445 8.75781 28.1289 8.76172 28.1133 8.76953C28.1055 8.76953 28.0938 8.76953 28.0781 8.76953C28.0078 8.79297 27.9102 8.80469 27.7852 8.80469C27.6602 8.80469 27.5273 8.79688 27.3867 8.78125C27.2539 8.76562 27.1211 8.73828 26.9883 8.69922C26.8633 8.65234 26.7617 8.59375 26.6836 8.52344C26.6523 8.49219 26.6172 8.44531 26.5781 8.38281C26.5469 8.3125 26.5234 8.22266 26.5078 8.11328C26.4844 8.06641 26.4453 7.93359 26.3906 7.71484C26.3359 7.48828 26.2812 7.23438 26.2266 6.95312C26.1719 6.66406 26.1211 6.375 26.0742 6.08594C26.0352 5.79688 26.0234 5.56641 26.0391 5.39453C26.0469 5.22266 26.0781 5.04688 26.1328 4.86719C26.1875 4.67969 26.25 4.50391 26.3203 4.33984C26.3984 4.17578 26.4805 4.03516 26.5664 3.91797C26.6523 3.79297 26.7383 3.70703 26.8242 3.66016C27.0117 3.56641 27.2461 3.54688 27.5273 3.60156C27.8086 3.65625 28.1094 3.76172 28.4297 3.91797C28.4375 3.83984 28.4727 3.75391 28.5352 3.66016C28.5977 3.56641 28.668 3.48438 28.7461 3.41406C28.832 3.33594 28.918 3.28125 29.0039 3.25C29.0898 3.21094 29.1562 3.20703 29.2031 3.23828C29.2266 3.25391 29.2461 3.36328 29.2617 3.56641C29.2773 3.76172 29.2891 4.01953 29.2969 4.33984C29.3125 4.65234 29.3203 5.01172 29.3203 5.41797C29.3281 5.81641 29.3281 6.23047 29.3203 6.66016C29.3203 7.08203 29.3164 7.5 29.3086 7.91406C29.3086 8.32812 29.3008 8.70703 29.2852 9.05078C29.2773 9.39453 29.2656 9.68359 29.25 9.91797C29.2422 10.1523 29.2305 10.3047 29.2148 10.375ZM28.3945 4.80859C28.3477 4.77734 28.293 4.74609 28.2305 4.71484C28.1758 4.68359 28.1133 4.65234 28.043 4.62109C27.9727 4.58984 27.8945 4.5625 27.8086 4.53906C27.7695 4.52344 27.7148 4.53906 27.6445 4.58594C27.582 4.63281 27.5156 4.69922 27.4453 4.78516C27.3828 4.87109 27.3281 4.97656 27.2812 5.10156C27.2344 5.21875 27.2109 5.34375 27.2109 5.47656C27.2109 5.49219 27.2148 5.56641 27.2227 5.69922C27.2305 5.83203 27.2422 5.99219 27.2578 6.17969C27.2734 6.36719 27.2891 6.57031 27.3047 6.78906C27.3203 7.00781 27.3359 7.21094 27.3516 7.39844C27.375 7.58594 27.3945 7.74609 27.4102 7.87891C27.4258 8.00391 27.4375 8.07031 27.4453 8.07812C27.4766 8.10938 27.5195 8.125 27.5742 8.125C27.6367 8.125 27.6953 8.11719 27.75 8.10156C27.8125 8.08594 27.8672 8.06641 27.9141 8.04297C27.9609 8.01953 27.9961 8 28.0195 7.98438C28.1211 7.91406 28.1836 7.77734 28.207 7.57422C28.2227 7.55859 28.2305 7.51562 28.2305 7.44531C28.2539 6.92969 28.2773 6.46484 28.3008 6.05078C28.3242 5.62891 28.3555 5.21484 28.3945 4.80859ZM34.1016 2.91016C34.1094 3.02734 34.0938 3.20312 34.0547 3.4375C34.0234 3.67188 33.9688 3.90625 33.8906 4.14062C33.8125 4.375 33.7109 4.58203 33.5859 4.76172C33.4688 4.93359 33.332 5.01953 33.1758 5.01953C33.0977 5.01953 33.0312 4.97266 32.9766 4.87891C32.9219 4.78516 32.875 4.66406 32.8359 4.51562C32.7969 4.36719 32.7656 4.20312 32.7422 4.02344C32.7188 3.83594 32.6953 3.65625 32.6719 3.48438C32.6562 3.3125 32.6406 3.15625 32.625 3.01562C32.6172 2.86719 32.6094 2.75781 32.6016 2.6875C32.5703 2.64062 32.5117 2.59375 32.4258 2.54688C32.3477 2.49219 32.2773 2.46484 32.2148 2.46484C32.1445 2.46484 32.0586 2.53125 31.957 2.66406C31.8633 2.79688 31.7734 2.95312 31.6875 3.13281C31.6016 3.3125 31.5312 3.49219 31.4766 3.67188C31.4219 3.84375 31.3984 3.97656 31.4062 4.07031C31.4062 4.13281 31.4648 4.24219 31.582 4.39844C31.707 4.55469 31.8594 4.73828 32.0391 4.94922C32.2188 5.16016 32.4141 5.39062 32.625 5.64062C32.8359 5.88281 33.0312 6.125 33.2109 6.36719C33.3906 6.60938 33.543 6.83984 33.668 7.05859C33.793 7.27734 33.8594 7.46484 33.8672 7.62109C33.8828 7.80859 33.8398 8.05078 33.7383 8.34766C33.6445 8.63672 33.5234 8.91797 33.375 9.19141C33.2266 9.46484 33.0664 9.70312 32.8945 9.90625C32.7305 10.1016 32.582 10.2031 32.4492 10.2109C32.3633 10.2188 32.25 10.1797 32.1094 10.0938C31.9688 10.0156 31.8164 9.91016 31.6523 9.77734C31.4883 9.64453 31.3203 9.5 31.1484 9.34375C30.9844 9.17969 30.8281 9.01953 30.6797 8.86328C30.5391 8.70703 30.418 8.56641 30.3164 8.44141C30.2227 8.30859 30.168 8.21094 30.1523 8.14844C30.1211 8.05469 30.1016 7.92969 30.0938 7.77344C30.0938 7.60938 30.1016 7.45312 30.1172 7.30469C30.1406 7.14844 30.168 7.01562 30.1992 6.90625C30.2383 6.78906 30.2852 6.73047 30.3398 6.73047C30.3789 6.73047 30.4414 6.78125 30.5273 6.88281C30.6211 6.98438 30.7266 7.11328 30.8438 7.26953C30.9609 7.42578 31.0859 7.59766 31.2188 7.78516C31.3594 7.96484 31.4922 8.13281 31.6172 8.28906C31.7422 8.44531 31.8555 8.57812 31.957 8.6875C32.0586 8.78906 32.1406 8.83594 32.2031 8.82812C32.25 8.82812 32.3008 8.79297 32.3555 8.72266C32.4102 8.64453 32.4609 8.55469 32.5078 8.45312C32.5547 8.34375 32.5938 8.23438 32.625 8.125C32.6562 8.01562 32.6719 7.92969 32.6719 7.86719C32.6641 7.77344 32.5859 7.64062 32.4375 7.46875C32.2969 7.28906 32.1172 7.08984 31.8984 6.87109C31.6875 6.64453 31.457 6.41016 31.207 6.16797C30.9648 5.92578 30.7344 5.69531 30.5156 5.47656C30.3047 5.25 30.125 5.04688 29.9766 4.86719C29.8359 4.6875 29.7617 4.55078 29.7539 4.45703C29.7461 4.36328 29.7734 4.21875 29.8359 4.02344C29.8984 3.82031 29.9805 3.59375 30.082 3.34375C30.1914 3.09375 30.3125 2.83984 30.4453 2.58203C30.5781 2.32422 30.7148 2.08594 30.8555 1.86719C30.9961 1.64844 31.1328 1.47266 31.2656 1.33984C31.3984 1.19922 31.5156 1.12891 31.6172 1.12891C31.75 1.12891 31.9023 1.16016 32.0742 1.22266C32.2461 1.27734 32.4219 1.35547 32.6016 1.45703C32.7891 1.55078 32.9688 1.66016 33.1406 1.78516C33.3203 1.91016 33.4805 2.03906 33.6211 2.17188C33.7617 2.29688 33.875 2.42578 33.9609 2.55859C34.0469 2.68359 34.0938 2.80078 34.1016 2.91016ZM35.5078 6.61328C35.6328 6.56641 35.7734 6.51562 35.9297 6.46094C36.0938 6.39844 36.25 6.34375 36.3984 6.29688C36.5469 6.24219 36.6797 6.19531 36.7969 6.15625C36.9141 6.11719 37 6.08594 37.0547 6.0625C37.0469 5.97656 37.0352 5.87891 37.0195 5.76953C37.0117 5.65234 37 5.54297 36.9844 5.44141C36.9688 5.33203 36.9492 5.23828 36.9258 5.16016C36.9023 5.08203 36.8789 5.03516 36.8555 5.01953C36.793 4.99609 36.6875 4.97656 36.5391 4.96094C36.3984 4.9375 36.25 4.94141 36.0938 4.97266C35.9453 5.00391 35.8086 5.0625 35.6836 5.14844C35.5586 5.23438 35.4883 5.37109 35.4727 5.55859C35.457 5.68359 35.4531 5.83984 35.4609 6.02734C35.4688 6.21484 35.4844 6.41016 35.5078 6.61328ZM38.0508 6.80078C38.043 6.81641 37.9492 6.84766 37.7695 6.89453C37.5898 6.94141 37.375 6.99219 37.125 7.04688C36.875 7.09375 36.6094 7.14453 36.3281 7.19922C36.0469 7.24609 35.8047 7.28516 35.6016 7.31641C35.6406 7.62891 35.6875 7.91016 35.7422 8.16016C35.7969 8.40234 35.8438 8.55469 35.8828 8.61719C35.9219 8.67188 35.9727 8.72266 36.0352 8.76953C36.0898 8.80859 36.1562 8.84766 36.2344 8.88672C36.3203 8.91797 36.4219 8.94141 36.5391 8.95703C36.625 8.98047 36.707 8.94922 36.7852 8.86328C36.8477 8.78516 36.9023 8.64844 36.9492 8.45312C37.0039 8.25781 37.0312 7.94922 37.0312 7.52734C37.2734 7.48828 37.4609 7.46484 37.5938 7.45703C37.7344 7.44922 37.8359 7.44922 37.8984 7.45703C37.9766 7.46484 38.0234 7.47656 38.0391 7.49219C38.0469 7.51562 38.0469 7.57422 38.0391 7.66797C38.0312 7.76172 38.0117 7.87891 37.9805 8.01953C37.957 8.15234 37.9258 8.30078 37.8867 8.46484C37.8555 8.62109 37.8164 8.77344 37.7695 8.92188C37.7227 9.0625 37.6719 9.19141 37.6172 9.30859C37.5625 9.41797 37.5039 9.49609 37.4414 9.54297C37.2539 9.68359 37.0195 9.75391 36.7383 9.75391C36.457 9.74609 36.1797 9.70703 35.9062 9.63672C35.6328 9.55859 35.3867 9.46875 35.168 9.36719C34.9492 9.25781 34.8125 9.16797 34.7578 9.09766C34.7188 9.05078 34.6836 8.93359 34.6523 8.74609C34.6211 8.55078 34.5938 8.31641 34.5703 8.04297C34.5547 7.76953 34.543 7.46875 34.5352 7.14062C34.5273 6.8125 34.5312 6.49219 34.5469 6.17969C34.5703 5.86719 34.6016 5.57812 34.6406 5.3125C34.6875 5.04688 34.75 4.83203 34.8281 4.66797C34.9453 4.43359 35.1367 4.24219 35.4023 4.09375C35.668 3.94531 35.9492 3.84375 36.2461 3.78906C36.543 3.73438 36.8242 3.72656 37.0898 3.76562C37.3633 3.80469 37.5664 3.89062 37.6992 4.02344C37.7773 4.10156 37.8477 4.25781 37.9102 4.49219C37.9727 4.71875 38.0117 4.99609 38.0273 5.32422C38.0273 5.35547 38.0312 5.44531 38.0391 5.59375C38.0469 5.74219 38.0508 5.90234 38.0508 6.07422C38.0586 6.23828 38.0625 6.39453 38.0625 6.54297C38.0625 6.69141 38.0586 6.77734 38.0508 6.80078ZM39.6914 6.61328C39.8164 6.56641 39.957 6.51562 40.1133 6.46094C40.2773 6.39844 40.4336 6.34375 40.582 6.29688C40.7305 6.24219 40.8633 6.19531 40.9805 6.15625C41.0977 6.11719 41.1836 6.08594 41.2383 6.0625C41.2305 5.97656 41.2188 5.87891 41.2031 5.76953C41.1953 5.65234 41.1836 5.54297 41.168 5.44141C41.1523 5.33203 41.1328 5.23828 41.1094 5.16016C41.0859 5.08203 41.0625 5.03516 41.0391 5.01953C40.9766 4.99609 40.8711 4.97656 40.7227 4.96094C40.582 4.9375 40.4336 4.94141 40.2773 4.97266C40.1289 5.00391 39.9922 5.0625 39.8672 5.14844C39.7422 5.23438 39.6719 5.37109 39.6562 5.55859C39.6406 5.68359 39.6367 5.83984 39.6445 6.02734C39.6523 6.21484 39.668 6.41016 39.6914 6.61328ZM42.2344 6.80078C42.2266 6.81641 42.1328 6.84766 41.9531 6.89453C41.7734 6.94141 41.5586 6.99219 41.3086 7.04688C41.0586 7.09375 40.793 7.14453 40.5117 7.19922C40.2305 7.24609 39.9883 7.28516 39.7852 7.31641C39.8242 7.62891 39.8711 7.91016 39.9258 8.16016C39.9805 8.40234 40.0273 8.55469 40.0664 8.61719C40.1055 8.67188 40.1562 8.72266 40.2188 8.76953C40.2734 8.80859 40.3398 8.84766 40.418 8.88672C40.5039 8.91797 40.6055 8.94141 40.7227 8.95703C40.8086 8.98047 40.8906 8.94922 40.9688 8.86328C41.0312 8.78516 41.0859 8.64844 41.1328 8.45312C41.1875 8.25781 41.2148 7.94922 41.2148 7.52734C41.457 7.48828 41.6445 7.46484 41.7773 7.45703C41.918 7.44922 42.0195 7.44922 42.082 7.45703C42.1602 7.46484 42.207 7.47656 42.2227 7.49219C42.2305 7.51562 42.2305 7.57422 42.2227 7.66797C42.2148 7.76172 42.1953 7.87891 42.1641 8.01953C42.1406 8.15234 42.1094 8.30078 42.0703 8.46484C42.0391 8.62109 42 8.77344 41.9531 8.92188C41.9062 9.0625 41.8555 9.19141 41.8008 9.30859C41.7461 9.41797 41.6875 9.49609 41.625 9.54297C41.4375 9.68359 41.2031 9.75391 40.9219 9.75391C40.6406 9.74609 40.3633 9.70703 40.0898 9.63672C39.8164 9.55859 39.5703 9.46875 39.3516 9.36719C39.1328 9.25781 38.9961 9.16797 38.9414 9.09766C38.9023 9.05078 38.8672 8.93359 38.8359 8.74609C38.8047 8.55078 38.7773 8.31641 38.7539 8.04297C38.7383 7.76953 38.7266 7.46875 38.7188 7.14062C38.7109 6.8125 38.7148 6.49219 38.7305 6.17969C38.7539 5.86719 38.7852 5.57812 38.8242 5.3125C38.8711 5.04688 38.9336 4.83203 39.0117 4.66797C39.1289 4.43359 39.3203 4.24219 39.5859 4.09375C39.8516 3.94531 40.1328 3.84375 40.4297 3.78906C40.7266 3.73438 41.0078 3.72656 41.2734 3.76562C41.5469 3.80469 41.75 3.89062 41.8828 4.02344C41.9609 4.10156 42.0312 4.25781 42.0938 4.49219C42.1562 4.71875 42.1953 4.99609 42.2109 5.32422C42.2109 5.35547 42.2148 5.44531 42.2227 5.59375C42.2305 5.74219 42.2344 5.90234 42.2344 6.07422C42.2422 6.23828 42.2461 6.39453 42.2461 6.54297C42.2461 6.69141 42.2422 6.77734 42.2344 6.80078ZM46.2656 2.24219C46.2891 2.42969 46.2969 2.80469 46.2891 3.36719C46.2891 3.60938 46.2812 3.90234 46.2656 4.24609C46.2578 4.58984 46.2422 5.00391 46.2188 5.48828C46.1953 5.96484 46.1641 6.51953 46.125 7.15234C46.0938 7.77734 46.0508 8.48828 45.9961 9.28516C45.9805 9.36328 45.9453 9.44922 45.8906 9.54297C45.8438 9.63672 45.7891 9.72266 45.7266 9.80078C45.6641 9.87891 45.5977 9.94531 45.5273 10C45.457 10.0469 45.3945 10.0625 45.3398 10.0469C45.3242 10.0391 45.3047 9.97656 45.2812 9.85938C45.2656 9.74219 45.25 9.57812 45.2344 9.36719C44.8828 9.52344 44.5508 9.62891 44.2383 9.68359C43.9258 9.73828 43.6719 9.70312 43.4766 9.57812C43.3984 9.53125 43.3203 9.44922 43.2422 9.33203C43.1719 9.20703 43.1055 9.0625 43.043 8.89844C42.9805 8.73438 42.9297 8.5625 42.8906 8.38281C42.8516 8.19531 42.832 8.01953 42.832 7.85547C42.832 7.73828 42.8398 7.58203 42.8555 7.38672C42.8711 7.19141 42.8906 6.98047 42.9141 6.75391C42.9375 6.51953 42.9648 6.28516 42.9961 6.05078C43.0273 5.80859 43.0586 5.58594 43.0898 5.38281C43.1211 5.17969 43.1484 5.00781 43.1719 4.86719C43.1953 4.72656 43.2148 4.64062 43.2305 4.60938C43.2461 4.51562 43.2734 4.4375 43.3125 4.375C43.3594 4.3125 43.3984 4.26562 43.4297 4.23438C43.5078 4.17188 43.6211 4.125 43.7695 4.09375C43.9258 4.0625 44.0859 4.04297 44.25 4.03516C44.4219 4.02734 44.582 4.03125 44.7305 4.04688C44.8789 4.05469 44.9883 4.07031 45.0586 4.09375H45.082C45.0664 3.125 45.0664 2.37891 45.082 1.85547C45.0977 1.33203 45.1289 1.05078 45.1758 1.01172C45.207 0.988281 45.2773 1.00781 45.3867 1.07031C45.4961 1.13281 45.6094 1.22266 45.7266 1.33984C45.8516 1.45703 45.9648 1.59766 46.0664 1.76172C46.1758 1.91797 46.2422 2.07812 46.2656 2.24219ZM44.4844 8.80469C44.5938 8.78125 44.6914 8.75391 44.7773 8.72266C44.8711 8.68359 44.9492 8.64844 45.0117 8.61719C45.082 8.58594 45.1406 8.54688 45.1875 8.5C45.1797 8.29688 45.1719 8.07031 45.1641 7.82031C45.1562 7.5625 45.1484 7.29688 45.1406 7.02344C45.1328 6.75 45.125 6.47266 45.1172 6.19141C45.1094 5.90234 45.1016 5.625 45.0938 5.35938C45.0938 5.27344 45.0781 5.19922 45.0469 5.13672C45.0234 5.07422 44.9922 5.02344 44.9531 4.98438C44.9297 4.96875 44.8828 4.94922 44.8125 4.92578C44.7422 4.89453 44.6602 4.87109 44.5664 4.85547C44.4805 4.83203 44.3945 4.82031 44.3086 4.82031C44.2305 4.82031 44.1758 4.83594 44.1445 4.86719C44.1289 4.875 44.1133 4.95312 44.0977 5.10156C44.0898 5.24219 44.0781 5.42188 44.0625 5.64062C44.0547 5.85156 44.043 6.08203 44.0273 6.33203C44.0195 6.58203 44.0117 6.81641 44.0039 7.03516C43.9961 7.25391 43.9883 7.44141 43.9805 7.59766C43.9727 7.75391 43.9688 7.83984 43.9688 7.85547C43.9688 7.98828 43.9844 8.11328 44.0156 8.23047C44.0547 8.34766 44.1016 8.45312 44.1562 8.54688C44.2109 8.63281 44.2695 8.70312 44.332 8.75781C44.3945 8.80469 44.4453 8.82031 44.4844 8.80469Z" fill="white"/>
</svg>
